<?xml version="1.0" encoding="UTF-8" standalone="no"?>
<!-- Created with Inkscape (http://www.inkscape.org/) -->

<svg
   width="79.327682mm"
   height="11.411352mm"
   viewBox="0 0 79.327682 11.411352"
   version="1.1"
   id="svg1"
   xmlns:inkscape="http://www.inkscape.org/namespaces/inkscape"
   xmlns:sodipodi="http://sodipodi.sourceforge.net/DTD/sodipodi-0.dtd"
   xmlns="http://www.w3.org/2000/svg"
   xmlns:svg="http://www.w3.org/2000/svg">
  <sodipodi:namedview
     id="namedview1"
     pagecolor="#ffffff"
     bordercolor="#000000"
     borderopacity="0.25"
     inkscape:showpageshadow="2"
     inkscape:pageopacity="0.0"
     inkscape:pagecheckerboard="0"
     inkscape:deskcolor="#d1d1d1"
     inkscape:document-units="mm" />
  <defs
     id="defs1" />
  <g
     inkscape:label="Layer 1"
     inkscape:groupmode="layer"
     id="layer1"
     transform="translate(-30.78604,-93.891439)">
    <path
       d="m 39.293851,104.27277 q -0.06488,0.28386 -0.105436,0.66505 -0.827261,0.20276 -1.557197,0.28386 -0.721825,0.0811 -1.297664,0.0811 -1.184118,0 -2.24658,-0.38119 -1.062463,-0.38119 -1.824841,-1.12735 -0.762377,-0.75426 -1.119235,-1.78428 -0.356857,-1.03003 -0.356857,-2.165482 0,-1.265222 0.41363,-2.449341 0.421741,-1.184118 1.22467,-1.962717 0.80293,-0.786708 1.922165,-1.159787 1.127346,-0.381189 2.400679,-0.381189 0.429851,0 0.924585,0.04055 0.502845,0.04055 0.819151,0.08921 0.324416,0.04866 0.859702,0.162208 0.01622,0.332526 0.07299,0.697494 -0.892144,-0.291974 -1.540976,-0.389299 -0.640722,-0.09732 -1.240891,-0.09732 -1.046242,0 -2.01138,0.324416 -0.965137,0.324416 -1.703184,1.046242 -0.738046,0.713715 -1.135456,1.776178 -0.389299,1.054352 -0.389299,2.181697 0,1.0868 0.324416,2.07626 0.324416,0.98136 0.989469,1.64642 0.665053,0.66505 1.581528,1.0138 0.916475,0.34063 2.003269,0.34063 1.338216,0 2.992738,-0.52717 z m 2.343905,-10.210997 q 0.20276,0.0081 0.364968,0.0081 0.170319,0 0.373079,-0.0081 l -0.373079,6.650527 -0.01622,0.60017 v 0.13788 q 0,0.97325 0.251422,1.59775 0.251422,0.61639 0.80293,1.03002 0.559617,0.40552 1.21656,0.56773 0.665052,0.15409 1.443651,0.15409 0.746157,0 1.435541,-0.15409 0.519065,-0.11355 0.957027,-0.34875 0.348747,-0.18654 0.632611,-0.47041 0.283864,-0.28386 0.478514,-0.64072 0.20276,-0.36496 0.291974,-0.76237 0.162208,-0.7786 0.210871,-1.90595 l 0.162208,-3.333373 q 0.0811,-1.881613 0.0811,-3.122504 0.21087,0.0081 0.356857,0.0081 0.145987,0 0.356858,-0.0081 l -0.210871,3.690232 -0.137876,3.252275 q -0.06488,1.07057 -0.243312,1.77617 -0.113546,0.42174 -0.332527,0.80293 -0.21087,0.34875 -0.502845,0.61639 -0.332526,0.3082 -0.802929,0.5434 -0.510955,0.25953 -1.103015,0.3893 -0.778598,0.16221 -1.605859,0.16221 -0.908365,0 -1.646411,-0.17843 -0.648832,-0.1541 -1.192229,-0.48663 -0.543397,-0.33252 -0.884034,-0.76237 -0.283864,-0.34875 -0.454182,-0.90837 -0.170318,-0.55962 -0.170318,-1.35443 0,-0.71372 0.04866,-1.678858 l 0.186539,-4.330954 q 0.02433,-0.754267 0.02433,-1.532865 z m 10.730061,10.730057 q 0,-0.3163 -0.04866,-0.72993 1.532865,0.73804 2.798088,0.73804 0.721825,0 1.305774,-0.2352 0.583949,-0.2352 0.900255,-0.69749 0.324416,-0.47041 0.324416,-1.07058 0,-0.30008 -0.08922,-0.56772 -0.0811,-0.26765 -0.275753,-0.55151 -0.19465,-0.28387 -0.681274,-0.72183 -0.478514,-0.44607 -1.597749,-1.378765 l -0.640721,-0.535286 q -0.332527,-0.291975 -0.640722,-0.60828 -0.308195,-0.316306 -0.510955,-0.583949 -0.20276,-0.275754 -0.308195,-0.486624 -0.09732,-0.218981 -0.154098,-0.478514 -0.05677,-0.259533 -0.05677,-0.535286 0,-0.656943 0.356858,-1.224671 0.356857,-0.567728 1.062462,-0.900254 0.705605,-0.332527 1.792399,-0.332527 0.754267,0 1.922165,0.218981 0.0081,0.308195 0.07299,0.681274 -0.746157,-0.235202 -1.240891,-0.316306 -0.494735,-0.0811 -0.940807,-0.0811 -0.802929,0 -1.321995,0.267643 -0.519065,0.259533 -0.802929,0.705605 -0.283864,0.437962 -0.283864,0.924586 0,0.259533 0.07299,0.510955 0.07299,0.243312 0.235202,0.502845 0.170318,0.251422 0.446072,0.559618 0.275753,0.300084 0.713715,0.689384 0.446072,0.389299 1.176008,0.997579 0.738046,0.608272 1.02191,0.867812 0.291975,0.25142 0.551508,0.54339 0.259533,0.29198 0.421741,0.58395 0.162208,0.28387 0.235201,0.59206 0.0811,0.3082 0.0811,0.64883 0,0.76238 -0.389299,1.33822 -0.381189,0.57584 -1.135456,0.87592 -0.746157,0.29198 -1.678853,0.29198 -0.60017,0 -1.167898,-0.0973 -0.567728,-0.0892 -1.524755,-0.40552 z m 10.105559,0.34064 0.121656,-2.01949 0.316306,-8.548362 q -2.003269,0 -3.487472,0.07299 0.04055,-0.332526 0.04055,-0.575838 1.954606,0.0081 4.030868,0.0081 l 2.311465,-0.0081 h 1.22467 q -0.04055,0.324416 -0.04055,0.575838 -0.981358,-0.07299 -2.984627,-0.07299 h -0.470404 l -0.324416,8.929552 q -0.0081,0.18654 -0.0081,0.37308 v 1.26522 q -0.20276,-0.008 -0.364968,-0.008 -0.154098,0 -0.364968,0.008 z m 11.18424,-11.241016 q 1.159787,0 2.189808,0.348748 1.038131,0.348747 1.808619,1.135456 0.770488,0.786708 1.094904,1.808619 0.332527,1.0138 0.332527,2.157366 0,1.257117 -0.373079,2.416897 -0.373078,1.15979 -1.127345,1.9465 -0.754267,0.78671 -1.889724,1.19223 -1.127345,0.40552 -2.368236,0.40552 -1.192229,0 -2.287133,-0.37308 -1.094904,-0.38119 -1.832951,-1.11113 -0.738046,-0.73804 -1.086793,-1.76806 -0.340637,-1.03813 -0.340637,-2.17359 0,-1.273333 0.421741,-2.465562 0.42174,-1.200339 1.21656,-1.987048 0.802929,-0.786709 1.914054,-1.159787 1.111125,-0.373079 2.327685,-0.373079 z m -0.02433,0.502845 q -1.119235,0 -2.108704,0.348747 -0.989469,0.340637 -1.719405,1.119236 -0.729936,0.770488 -1.070573,1.82484 -0.340637,1.046241 -0.340637,2.189808 0,1.07868 0.356858,2.06815 0.356857,0.98947 1.046241,1.6383 0.689385,0.64883 1.61397,0.9327 0.932696,0.28386 1.962717,0.28386 1.086794,0 2.051931,-0.3163 0.973248,-0.31631 1.678853,-1.05435 0.713715,-0.73805 1.038131,-1.76807 0.332527,-1.03813 0.332527,-2.18981 0,-1.094904 -0.308195,-2.084373 -0.300085,-0.989469 -0.973248,-1.678853 -0.673164,-0.697494 -1.597749,-1.00569 -0.924586,-0.308195 -1.962717,-0.308195 z m 7.185815,10.738171 0.170319,-1.50042 0.470403,-5.953039 0.251422,-3.617238 q 0.283864,0.0081 0.519066,0.0081 0.243312,0 0.527176,-0.0081 l 0.356858,1.094904 q 0.154097,0.446072 0.640721,1.816729 l 2.133035,5.961144 0.583949,1.57342 4.282292,-9.472949 q 0.145987,-0.340637 0.397409,-0.973248 0.275754,0.0081 0.527176,0.0081 0.251423,0 0.527176,-0.0081 l -0.0811,4.695922 q -0.01622,1.589635 -0.01622,2.360125 0,2.53856 0.04866,4.01465 -0.210871,-0.008 -0.381189,-0.008 -0.178429,0 -0.381189,0.008 l 0.137877,-7.137153 q 0.02433,-1.289554 0.02433,-2.279023 v -1.070572 l -1.378768,3.025179 -3.292822,7.461569 q -0.19465,-0.008 -0.429852,-0.008 -0.235201,0 -0.429851,0.008 l -3.536134,-9.781144 -0.251423,-0.648832 -0.08921,0.948917 q -0.03244,0.39741 -0.113546,1.605859 l -0.429851,5.96926 q -0.02433,0.38118 -0.04055,0.77048 -0.01622,0.38119 -0.02433,1.13546 -0.21087,-0.008 -0.364968,-0.008 -0.154098,0 -0.356858,0.008 z m 13.909339,0 q 0.154097,-2.19792 0.275753,-5.669171 0.129767,-3.479361 0.129767,-5.401526 1.800509,0.0081 3.382037,0.0081 l 2.960293,-0.0081 q -0.0324,0.324416 -0.0324,0.575838 l -0.64883,-0.04866 q -0.25142,-0.02433 -0.875924,-0.02433 -0.624501,-0.0081 -1.224671,-0.0081 -1.922164,0 -2.919744,0.0081 l -0.162208,4.647259 q 1.224671,0.02433 2.246581,0.02433 1.21656,0 3.000846,-0.02433 -0.0324,0.243312 -0.0405,0.535286 l -3.057621,-0.02433 q -0.535286,0 -2.173587,0.02433 l -0.170318,4.874344 2.327685,0.008 q 1.370657,0 1.897833,-0.008 0.535288,-0.0162 1.451758,-0.0649 -0.0405,0.32442 -0.0405,0.57584 -1.946494,-0.008 -2.846749,-0.008 z m 8.70246,0 0.12977,-1.96272 0.2352,-6.107129 0.0324,-1.735626 0.008,-1.265222 1.61397,0.0081 1.84917,-0.0081 q 1.15168,0 1.67885,0.308195 0.52718,0.300085 0.82726,0.867813 0.3082,0.559617 0.3082,1.289553 0,0.908365 -0.46229,1.670743 -0.45419,0.754267 -1.249,1.151677 -0.79482,0.397409 -1.82484,0.397409 -0.12977,0 -0.3893,-0.01622 l 3.88488,5.401527 q -0.20276,-0.008 -0.42174,-0.008 -0.22709,0 -0.42174,0.008 l -1.06247,-1.60586 -3.09006,-4.371506 q 0.72183,0.129767 1.249,0.129767 0.64072,0 1.24089,-0.170319 0.60017,-0.178429 1.03002,-0.527176 0.42986,-0.348747 0.66506,-0.867813 0.2352,-0.527176 0.2352,-1.143566 0,-0.413631 -0.11355,-0.770488 -0.11354,-0.356858 -0.36496,-0.624501 -0.25143,-0.275754 -0.51907,-0.389299 -0.25953,-0.113546 -0.67316,-0.162208 -0.41363,-0.05677 -0.87593,-0.05677 l -1.3301,0.0081 q -0.43796,0 -1.11924,-0.01622 -0.26764,6.415319 -0.30819,10.567849 -0.20276,-0.008 -0.38119,-0.008 -0.17843,0 -0.38119,0.008 z"
       id="text6"
       style="font-size:16.6101px;font-family:'Eras Light ITC';-inkscape-font-specification:'Eras Light ITC';fill:#666666;stroke:#808080;stroke-width:0"
       aria-label="CUSTOMER"
       inkscape:export-filename="CUSTOMER.svg"
       inkscape:export-xdpi="96"
       inkscape:export-ydpi="96" />
  </g>
</svg>
